<svg xmlns="http://www.w3.org/2000/svg" xmlns:xlink="http://www.w3.org/1999/xlink" width="500" zoomAndPan="magnify" viewBox="0 0 375 374.999991" height="500" preserveAspectRatio="xMidYMid meet" version="1.0"><defs><clipPath id="1f66554147"><path d="M 30 33.261719 L 302 33.261719 L 302 316 L 30 316 Z M 30 33.261719 " clip-rule="nonzero"/></clipPath><clipPath id="8aa90c3d0e"><path d="M 0.308594 216 L 94 216 L 94 310.964844 L 0.308594 310.964844 Z M 0.308594 216 " clip-rule="nonzero"/></clipPath><clipPath id="bc2da3cd06"><path d="M 0.308594 0.800781 L 94 0.800781 L 94 95 L 0.308594 95 Z M 0.308594 0.800781 " clip-rule="nonzero"/></clipPath><clipPath id="b5215a2bfe"><path d="M 215 0.800781 L 310 0.800781 L 310 95 L 215 95 Z M 215 0.800781 " clip-rule="nonzero"/></clipPath><clipPath id="a292e0c863"><path d="M 215 216 L 310 216 L 310 310.964844 L 215 310.964844 Z M 215 216 " clip-rule="nonzero"/></clipPath><clipPath id="8e61cdc184"><path d="M 195.039062 193.109375 L 343.816406 193.109375 L 343.816406 341.890625 L 195.039062 341.890625 Z M 195.039062 193.109375 " clip-rule="nonzero"/></clipPath><clipPath id="e338f409a6"><path d="M 269.429688 193.109375 C 228.34375 193.109375 195.039062 226.414062 195.039062 267.5 C 195.039062 308.582031 228.34375 341.890625 269.429688 341.890625 C 310.511719 341.890625 343.816406 308.582031 343.816406 267.5 C 343.816406 226.414062 310.511719 193.109375 269.429688 193.109375 Z M 269.429688 193.109375 " clip-rule="nonzero"/></clipPath><clipPath id="8cc7a5366d"><path d="M 0.0390625 0.109375 L 148.816406 0.109375 L 148.816406 148.890625 L 0.0390625 148.890625 Z M 0.0390625 0.109375 " clip-rule="nonzero"/></clipPath><clipPath id="e7a0f5b393"><path d="M 74.429688 0.109375 C 33.34375 0.109375 0.0390625 33.414062 0.0390625 74.5 C 0.0390625 115.582031 33.34375 148.890625 74.429688 148.890625 C 115.511719 148.890625 148.816406 115.582031 148.816406 74.5 C 148.816406 33.414062 115.511719 0.109375 74.429688 0.109375 Z M 74.429688 0.109375 " clip-rule="nonzero"/></clipPath><clipPath id="41d29c4597"><rect x="0" width="149" y="0" height="149"/></clipPath><clipPath id="bada969789"><path d="M 163.472656 152.507812 L 297.96875 152.507812 L 297.96875 287.003906 L 163.472656 287.003906 Z M 163.472656 152.507812 " clip-rule="nonzero"/></clipPath><clipPath id="79ce70611a"><path d="M 230.722656 152.507812 C 193.582031 152.507812 163.472656 182.617188 163.472656 219.753906 C 163.472656 256.894531 193.582031 287.003906 230.722656 287.003906 C 267.859375 287.003906 297.96875 256.894531 297.96875 219.753906 C 297.96875 182.617188 267.859375 152.507812 230.722656 152.507812 Z M 230.722656 152.507812 " clip-rule="nonzero"/></clipPath><clipPath id="11d2fe6091"><path d="M 0.472656 0.507812 L 134.96875 0.507812 L 134.96875 135.003906 L 0.472656 135.003906 Z M 0.472656 0.507812 " clip-rule="nonzero"/></clipPath><clipPath id="cad4c47e77"><path d="M 67.722656 0.507812 C 30.582031 0.507812 0.472656 30.617188 0.472656 67.753906 C 0.472656 104.894531 30.582031 135.003906 67.722656 135.003906 C 104.859375 135.003906 134.96875 104.894531 134.96875 67.753906 C 134.96875 30.617188 104.859375 0.507812 67.722656 0.507812 Z M 67.722656 0.507812 " clip-rule="nonzero"/></clipPath><clipPath id="993da27587"><rect x="0" width="135" y="0" height="136"/></clipPath><clipPath id="38a4872867"><path d="M 164 160 L 315 160 L 315 331 L 164 331 Z M 164 160 " clip-rule="nonzero"/></clipPath><clipPath id="d8a9a74195"><path d="M 148.816406 192.222656 L 263.5 125.757812 L 356.550781 286.3125 L 241.867188 352.777344 Z M 148.816406 192.222656 " clip-rule="nonzero"/></clipPath><clipPath id="4b3f23cd00"><path d="M 148.816406 192.222656 L 263.5 125.757812 L 356.550781 286.3125 L 241.867188 352.777344 Z M 148.816406 192.222656 " clip-rule="nonzero"/></clipPath><clipPath id="d6eebd5252"><rect x="0" width="344" y="0" height="350"/></clipPath></defs><rect x="-37.5" width="450" fill="#ffffff" y="-37.499999" height="449.999989" fill-opacity="1"/><rect x="-37.5" width="450" fill="#640009" y="-37.499999" height="449.999989" fill-opacity="1"/><g transform="matrix(1, 0, 0, 1, 31, 23)"><g clip-path="url(#d6eebd5252)"><g clip-path="url(#1f66554147)"><path fill="#ffffff" d="M 254.5 265.230469 L 257.367188 269.332031 C 254.320312 275.878906 254.9375 283.648438 259.160156 289.679688 C 263.070312 295.273438 268.273438 302.699219 272.234375 308.347656 C 274.699219 311.867188 278.453125 314.257812 282.675781 315.007812 C 286.894531 315.746094 291.246094 314.78125 294.757812 312.328125 C 294.757812 312.328125 294.757812 312.316406 294.765625 312.316406 C 298.277344 309.859375 300.667969 306.105469 301.417969 301.875 C 302.152344 297.65625 301.191406 293.3125 298.734375 289.800781 L 285.664062 271.125 C 281.433594 265.09375 274.34375 261.859375 267.152344 262.476562 L 264.285156 258.378906 C 286.398438 239.242188 290.890625 206.054688 273.753906 181.578125 C 255.460938 155.457031 219.40625 149.097656 193.277344 167.390625 C 167.15625 185.6875 160.796875 221.742188 179.089844 247.871094 C 196.226562 272.339844 228.949219 279.464844 254.5 265.230469 Z M 275.867188 277.980469 C 274.121094 275.476562 271.179688 274.140625 268.199219 274.382812 C 266.949219 277.101562 267.199219 280.324219 268.957031 282.824219 C 272.867188 288.410156 278.070312 295.84375 282.03125 301.492188 C 282.664062 302.417969 283.644531 303.035156 284.746094 303.230469 C 285.847656 303.425781 286.988281 303.175781 287.902344 302.53125 C 288.820312 301.886719 289.445312 300.90625 289.640625 299.804688 C 289.835938 298.703125 289.585938 297.570312 288.941406 296.65625 Z M 112.964844 207.398438 C 112.964844 204.101562 110.292969 201.421875 106.988281 201.421875 L 39.03125 201.421875 C 35.734375 201.421875 33.054688 204.101562 33.054688 207.398438 L 33.054688 275.355469 C 33.054688 278.660156 35.734375 281.332031 39.03125 281.332031 L 106.988281 281.332031 C 110.292969 281.332031 112.964844 278.660156 112.964844 275.355469 Z M 147.75 252.25 L 147.75 266.53125 C 147.75 269.828125 145.078125 272.507812 141.773438 272.507812 C 138.476562 272.507812 135.796875 269.828125 135.796875 266.53125 L 135.796875 246.273438 C 135.796875 242.96875 138.476562 240.296875 141.773438 240.296875 L 158.65625 240.296875 C 161.953125 240.296875 164.632812 242.96875 164.632812 246.273438 C 164.632812 249.570312 161.953125 252.25 158.65625 252.25 Z M 45.007812 213.375 L 45.007812 269.378906 L 101.011719 269.378906 L 101.011719 213.375 Z M 200.140625 177.1875 C 220.851562 162.675781 249.457031 167.71875 263.96875 188.441406 C 278.472656 209.164062 273.429688 237.757812 252.707031 252.269531 C 231.984375 266.773438 203.390625 261.730469 188.878906 241.015625 C 174.375 220.292969 179.417969 191.691406 200.140625 177.1875 Z M 92.109375 228.261719 C 92.109375 224.953125 89.429688 222.285156 86.132812 222.285156 L 59.890625 222.285156 C 56.585938 222.285156 53.914062 224.953125 53.914062 228.261719 L 53.914062 254.5 C 53.914062 257.796875 56.585938 260.480469 59.890625 260.480469 L 86.132812 260.480469 C 89.429688 260.480469 92.109375 257.796875 92.109375 254.5 Z M 65.867188 234.238281 L 65.867188 248.523438 L 80.15625 248.523438 L 80.15625 234.238281 Z M 126.167969 161.628906 L 103.710938 161.628906 C 100.414062 161.628906 97.730469 158.949219 97.730469 155.652344 C 97.730469 152.347656 100.414062 149.675781 103.710938 149.675781 L 132.144531 149.675781 C 135.449219 149.675781 138.121094 152.347656 138.121094 155.652344 L 138.121094 215.25 L 151.34375 215.25 C 154.640625 215.25 157.320312 217.933594 157.320312 221.226562 C 157.320312 224.535156 154.640625 227.207031 151.34375 227.207031 L 132.144531 227.207031 C 128.847656 227.207031 126.167969 224.535156 126.167969 221.226562 Z M 36.75 187.3125 L 108.761719 187.3125 C 112.058594 187.3125 114.738281 184.628906 114.738281 181.335938 C 114.738281 178.039062 112.058594 175.355469 108.761719 175.355469 L 36.75 175.355469 C 33.453125 175.355469 30.773438 178.039062 30.773438 181.335938 C 30.773438 184.628906 33.453125 187.3125 36.75 187.3125 Z M 164.492188 155.101562 L 164.492188 181.222656 C 164.492188 184.519531 161.8125 187.199219 158.515625 187.199219 C 155.222656 187.199219 152.539062 184.519531 152.539062 181.222656 L 152.539062 149.125 C 152.539062 145.828125 155.222656 143.148438 158.515625 143.148438 L 188.222656 143.148438 C 191.519531 143.148438 194.199219 145.828125 194.199219 149.125 C 194.199219 152.421875 191.519531 155.101562 188.222656 155.101562 Z M 38.589844 162.085938 L 74.816406 162.085938 C 78.121094 162.085938 80.792969 159.40625 80.792969 156.109375 C 80.792969 152.8125 78.121094 150.132812 74.816406 150.132812 L 38.589844 150.132812 C 35.292969 150.132812 32.613281 152.8125 32.613281 156.109375 C 32.613281 159.40625 35.292969 162.085938 38.589844 162.085938 Z M 225.167969 132.269531 L 225.167969 139.648438 C 225.167969 142.941406 222.496094 145.625 219.191406 145.625 C 215.894531 145.625 213.214844 142.941406 213.214844 139.648438 L 213.214844 126.292969 C 213.214844 122.996094 215.894531 120.316406 219.191406 120.316406 L 252.949219 120.316406 C 256.246094 120.316406 258.925781 122.996094 258.925781 126.292969 L 258.925781 144.644531 C 258.925781 147.9375 256.246094 150.621094 252.949219 150.621094 C 249.644531 150.621094 246.972656 147.9375 246.972656 144.644531 L 246.972656 132.269531 Z M 69.316406 138.132812 L 107.378906 138.132812 C 110.683594 138.132812 113.355469 135.464844 113.355469 132.15625 C 113.355469 128.859375 110.683594 126.179688 107.378906 126.179688 L 69.316406 126.179688 C 66.019531 126.179688 63.339844 128.859375 63.339844 132.15625 C 63.339844 135.464844 66.019531 138.132812 69.316406 138.132812 Z M 150.28125 88.414062 L 150.28125 39.164062 C 150.28125 35.867188 152.960938 33.1875 156.257812 33.1875 C 159.554688 33.1875 162.234375 35.867188 162.234375 39.164062 L 162.234375 94.390625 C 162.234375 97.6875 159.5625 100.367188 156.257812 100.367188 L 136.75 100.367188 L 136.75 119.859375 L 169.835938 119.859375 C 173.140625 119.859375 175.8125 122.539062 175.8125 125.835938 C 175.8125 129.140625 173.140625 131.8125 169.835938 131.8125 L 130.773438 131.8125 C 127.476562 131.8125 124.796875 129.140625 124.796875 125.835938 L 124.796875 94.390625 C 124.796875 91.085938 127.476562 88.414062 130.773438 88.414062 Z M 280.085938 39.976562 C 280.085938 36.671875 277.40625 34 274.109375 34 L 206.152344 34 C 202.847656 34 200.175781 36.671875 200.175781 39.976562 L 200.175781 107.933594 C 200.175781 111.230469 202.847656 113.910156 206.152344 113.910156 L 274.109375 113.910156 C 277.40625 113.910156 280.085938 111.230469 280.085938 107.933594 Z M 112.964844 39.976562 C 112.964844 36.671875 110.292969 34 106.988281 34 L 39.03125 34 C 35.734375 34 33.054688 36.671875 33.054688 39.976562 L 33.054688 107.933594 C 33.054688 111.230469 35.734375 113.910156 39.03125 113.910156 L 106.988281 113.910156 C 110.292969 113.910156 112.964844 111.230469 112.964844 107.933594 Z M 212.128906 45.953125 L 212.128906 101.957031 L 268.132812 101.957031 L 268.132812 45.953125 Z M 45.007812 45.953125 L 45.007812 101.957031 L 101.011719 101.957031 L 101.011719 45.953125 Z M 177.894531 69.429688 L 177.894531 93.28125 C 177.894531 96.578125 180.574219 99.257812 183.871094 99.257812 C 187.167969 99.257812 189.847656 96.578125 189.847656 93.28125 L 189.847656 69.429688 C 189.847656 66.132812 187.167969 63.453125 183.871094 63.453125 C 180.574219 63.453125 177.894531 66.132812 177.894531 69.429688 Z M 92.109375 60.828125 C 92.109375 57.53125 89.429688 54.851562 86.132812 54.851562 L 59.890625 54.851562 C 56.585938 54.851562 53.914062 57.53125 53.914062 60.828125 L 53.914062 87.078125 C 53.914062 90.375 56.585938 93.054688 59.890625 93.054688 L 86.132812 93.054688 C 89.429688 93.054688 92.109375 90.375 92.109375 87.078125 Z M 259.234375 60.828125 C 259.234375 57.53125 256.554688 54.851562 253.257812 54.851562 L 227.007812 54.851562 C 223.710938 54.851562 221.03125 57.53125 221.03125 60.828125 L 221.03125 87.078125 C 221.03125 90.375 223.710938 93.054688 227.007812 93.054688 L 253.257812 93.054688 C 256.554688 93.054688 259.234375 90.375 259.234375 87.078125 Z M 65.867188 66.804688 L 65.867188 81.101562 L 80.15625 81.101562 L 80.15625 66.804688 Z M 232.984375 66.804688 L 232.984375 81.101562 L 247.28125 81.101562 L 247.28125 66.804688 Z M 124.796875 40.535156 L 124.796875 72.640625 C 124.796875 75.9375 127.476562 78.617188 130.773438 78.617188 C 134.070312 78.617188 136.75 75.9375 136.75 72.640625 L 136.75 40.535156 C 136.75 37.238281 134.070312 34.558594 130.773438 34.558594 C 127.476562 34.558594 124.796875 37.238281 124.796875 40.535156 " fill-opacity="1" fill-rule="evenodd"/></g><g clip-path="url(#8aa90c3d0e)"><path fill="#ffffff" d="M 10.285156 266.804688 L 10.285156 216.445312 L 0.308594 216.445312 L 0.308594 266.804688 C 0.308594 278.371094 4.8125 289.238281 12.988281 297.417969 C 21.164062 305.59375 32.035156 310.097656 43.601562 310.097656 L 93.960938 310.097656 L 93.960938 300.117188 L 43.601562 300.117188 C 25.230469 300.117188 10.285156 285.175781 10.285156 266.804688 " fill-opacity="1" fill-rule="nonzero"/></g><g clip-path="url(#bc2da3cd06)"><path fill="#ffffff" d="M 10.285156 44.089844 C 10.285156 25.722656 25.230469 10.78125 43.601562 10.78125 L 93.957031 10.78125 L 93.957031 0.800781 L 43.601562 0.800781 C 32.035156 0.800781 21.164062 5.304688 12.988281 13.480469 C 4.8125 21.65625 0.308594 32.527344 0.308594 44.089844 L 0.308594 94.453125 L 10.285156 94.453125 L 10.285156 44.089844 " fill-opacity="1" fill-rule="nonzero"/></g><g clip-path="url(#b5215a2bfe)"><path fill="#ffffff" d="M 296.925781 13.480469 C 288.75 5.304688 277.878906 0.800781 266.3125 0.800781 L 215.957031 0.800781 L 215.957031 10.78125 L 266.3125 10.78125 C 284.683594 10.78125 299.625 25.722656 299.625 44.089844 L 299.625 94.453125 L 309.605469 94.453125 L 309.605469 44.089844 C 309.605469 32.527344 305.101562 21.65625 296.925781 13.480469 " fill-opacity="1" fill-rule="nonzero"/></g><g clip-path="url(#a292e0c863)"><path fill="#ffffff" d="M 299.625 266.804688 C 299.625 285.175781 284.683594 300.117188 266.3125 300.117188 L 215.957031 300.117188 L 215.957031 310.097656 L 266.3125 310.097656 C 277.878906 310.097656 288.75 305.59375 296.925781 297.417969 C 305.101562 289.242188 309.605469 278.371094 309.605469 266.804688 L 309.605469 216.445312 L 299.625 216.445312 L 299.625 266.804688 " fill-opacity="1" fill-rule="nonzero"/></g><g clip-path="url(#8e61cdc184)"><g clip-path="url(#e338f409a6)"><g transform="matrix(1, 0, 0, 1, 195, 193)"><g clip-path="url(#41d29c4597)"><g clip-path="url(#8cc7a5366d)"><g clip-path="url(#e7a0f5b393)"><path fill="#640009" d="M 0.0390625 0.109375 L 148.816406 0.109375 L 148.816406 148.890625 L 0.0390625 148.890625 Z M 0.0390625 0.109375 " fill-opacity="1" fill-rule="nonzero"/></g></g></g></g></g></g><g clip-path="url(#bada969789)"><g clip-path="url(#79ce70611a)"><g transform="matrix(1, 0, 0, 1, 163, 152)"><g clip-path="url(#993da27587)"><g clip-path="url(#11d2fe6091)"><g clip-path="url(#cad4c47e77)"><path fill="#640009" d="M 0.472656 0.507812 L 134.96875 0.507812 L 134.96875 135.003906 L 0.472656 135.003906 Z M 0.472656 0.507812 " fill-opacity="1" fill-rule="nonzero"/></g></g></g></g></g></g><g clip-path="url(#38a4872867)"><g clip-path="url(#d8a9a74195)"><g clip-path="url(#4b3f23cd00)"><path fill="#ffffff" d="M 280.792969 160.398438 C 278.855469 160.425781 277.289062 161.308594 277.300781 162.371094 L 277.777344 198.859375 C 277.15625 199.390625 276.078125 199.75 274.855469 199.765625 C 273.625 199.777344 272.542969 199.449219 271.902344 198.9375 L 271.433594 162.445312 C 271.421875 161.386719 269.835938 160.542969 267.894531 160.570312 C 265.953125 160.59375 264.386719 161.476562 264.40625 162.539062 L 264.875 198.910156 C 264.28125 199.503906 263.136719 199.917969 261.824219 199.933594 C 260.851562 199.945312 259.972656 199.738281 259.332031 199.402344 L 258.855469 162.609375 C 258.839844 161.550781 257.257812 160.707031 255.3125 160.730469 C 253.375 160.753906 251.808594 161.636719 251.824219 162.699219 L 252.050781 180.195312 L 252.324219 201.515625 L 252.351562 203.441406 C 252.464844 212.386719 258.125 219.785156 265.546875 221.425781 L 265.117188 261.238281 L 244.125 226.921875 C 243.988281 226.683594 243.851562 226.449219 243.714844 226.222656 C 250.796875 219.292969 250.488281 204.125 242.453125 190.261719 C 233.550781 174.898438 218.527344 166.964844 208.90625 172.542969 C 199.285156 178.117188 198.707031 195.09375 207.609375 210.457031 C 215.644531 224.320312 228.652344 232.128906 238.183594 229.429688 C 238.316406 229.660156 238.449219 229.894531 238.585938 230.132812 L 256.984375 263.6875 C 223.050781 241.75 183.546875 215.949219 169.710938 205.878906 C 150.003906 191.535156 187.917969 259.421875 246.828125 265.546875 L 246.867188 265.425781 L 264.683594 277.734375 L 264.933594 278.1875 L 264.433594 324.933594 C 264.472656 328.109375 267.078125 330.652344 270.253906 330.609375 C 273.429688 330.566406 275.972656 327.957031 275.929688 324.78125 L 274.890625 296.339844 L 287.285156 318.953125 C 288.835938 321.628906 292.265625 322.542969 294.941406 320.992188 C 297.617188 319.4375 298.53125 316.011719 296.980469 313.332031 L 282.902344 290.316406 L 307.171875 307.078125 C 309.335938 308.5 312.238281 307.894531 313.65625 305.734375 C 315.074219 303.574219 314.472656 300.671875 312.3125 299.25 C 312.3125 299.25 295.9375 288.796875 274.097656 274.730469 L 272.140625 221.339844 C 279.511719 219.507812 284.976562 211.972656 284.859375 203.019531 L 284.835938 201.09375 L 284.558594 179.777344 L 284.332031 162.277344 C 284.320312 161.21875 282.734375 160.375 280.792969 160.398438 " fill-opacity="1" fill-rule="nonzero"/></g></g></g></g></g></svg>